<?xml version="1.0" standalone="no"?>
<!DOCTYPE svg PUBLIC "-//W3C//DTD SVG 20010904//EN"
 "http://www.w3.org/TR/2001/REC-SVG-20010904/DTD/svg10.dtd">
<svg version="1.0" xmlns="http://www.w3.org/2000/svg"
 width="377.000000pt" height="380.000000pt" viewBox="0 0 377.000000 380.000000"
 preserveAspectRatio="xMidYMid meet">
<metadata>
Created by potrace 1.11, written by Peter Selinger 2001-2013
</metadata>
<g transform="translate(0.000000,380.000000) scale(0.100000,-0.100000)"
fill="#000000" stroke="none">
<path d="M675 3779 c-178 -27 -335 -91 -437 -176 -151 -126 -219 -278 -219
-489 0 -213 59 -363 191 -487 98 -93 169 -135 422 -254 309 -145 364 -190 355
-284 -9 -103 -82 -150 -238 -157 -208 -9 -422 43 -711 172 l-38 16 0 -275 0
-276 63 -28 c179 -81 350 -113 617 -115 260 -1 425 34 590 127 100 56 214 170
262 262 108 206 110 481 6 664 -64 111 -215 236 -383 316 -409 194 -462 224
-495 277 -49 81 -7 173 93 203 123 37 356 0 570 -91 45 -19 87 -34 93 -34 11
0 194 445 194 470 0 20 -265 110 -419 141 -110 23 -417 34 -516 18z"/>
<path d="M1790 1166 l0 -1156 310 0 310 0 0 420 0 420 78 0 79 0 243 -420 244
-420 354 0 c280 0 352 3 346 13 -4 6 -151 227 -327 490 -175 264 -321 485
-323 492 -3 7 16 26 48 45 77 47 217 193 256 267 97 185 97 462 0 646 -39 73
-132 168 -210 215 -76 45 -211 89 -348 114 -101 17 -172 21 -587 25 l-473 6 0
-1157z m936 638 c32 -16 72 -46 89 -67 29 -38 30 -42 30 -140 0 -94 -2 -106
-28 -150 -54 -91 -142 -127 -312 -127 l-95 0 0 88 c0 48 3 165 7 261 l6 174
123 -5 c110 -4 129 -8 180 -34z"/>
<path d="M1048 1359 c-146 -21 -220 -95 -219 -219 0 -60 30 -148 57 -171 22
-18 16 -33 -22 -54 -41 -22 -88 -77 -109 -129 -19 -46 -19 -147 0 -194 24 -57
91 -119 155 -143 117 -45 291 -34 396 25 l42 24 33 -34 33 -34 153 0 c86 0
153 4 153 9 0 5 -44 50 -97 99 l-97 90 28 37 c33 43 88 160 109 233 l16 52
-129 0 -129 0 -12 -42 c-6 -24 -20 -60 -31 -82 l-20 -39 -58 58 -58 57 68 67
c67 66 90 113 90 182 0 145 -156 237 -352 208z m103 -169 c31 -17 25 -72 -13
-116 l-32 -36 -28 31 c-63 71 -8 164 73 121z m-33 -463 c39 -40 72 -75 72 -79
0 -11 -62 -28 -102 -28 -31 0 -46 7 -70 30 -26 26 -30 36 -25 67 6 36 31 83
45 83 4 0 40 -33 80 -73z"/>
</g>
</svg>
