<?xml version="1.0" encoding="utf-8"?>
<!-- Generator: Adobe Illustrator 19.1.0, SVG Export Plug-In . SVG Version: 6.00 Build 0)  -->
<svg version="1.1" id="Layer_1" xmlns="http://www.w3.org/2000/svg" xmlns:xlink="http://www.w3.org/1999/xlink" x="0px" y="0px"
	 viewBox="4 302 620 190" style="enable-background:new 4 302 620 190;" xml:space="preserve">
<style type="text/css">
	.st0{fill:#ffffff;}
</style>
<g>
	<g>
		<g>
			<path class="st0" d="M196.8,481.1c-2.7,1.8-5,3.2-6.8,4.2c-1.9,1-3.3,1.5-4.3,1.5c-0.6,0-1.1-0.2-1.7-0.6
				c-0.6-0.4-1.1-1.1-1.6-2.1s-0.9-2.4-1.2-4.1s-0.5-4-0.5-6.7c-0.8,1.4-1.8,2.9-3,4.5s-2.4,3-3.7,4.3c-1.3,1.3-2.6,2.4-4,3.3
				s-2.7,1.3-4,1.3c-1.1,0-2.2-0.3-3.4-0.9c-1.2-0.6-2.3-1.5-3.3-2.8s-1.9-3-2.5-5c-0.7-2-1-4.5-1-7.4c0-2.5,0.3-4.9,0.9-7.2
				c0.6-2.3,1.5-4.6,2.6-6.7s2.6-4.2,4.3-6c1.7-1.9,3.6-3.6,5.8-5.1c0.8-0.6,1.8-1.1,2.8-1.6s2.1-1,3.2-1.4c1.1-0.4,2.2-0.7,3.3-1
				c1.1-0.2,2.2-0.4,3.3-0.4c0.7,0,1.3,0.1,1.9,0.3c0.6,0.2,1.2,0.4,1.8,0.7s1.2,0.6,1.7,0.9c0.6,0.3,1.1,0.6,1.6,1
				c0.8-0.5,1.7-1,2.6-1.5c0.9-0.5,1.8-0.9,2.6-1.3l1.1,2.1c-0.5,0.4-1,0.8-1.3,1.2c-0.3,0.3-0.6,0.7-0.9,1.2
				c-0.3,0.5-0.5,1-0.7,1.7s-0.4,1.5-0.6,2.6c-0.5,2.2-0.9,4.5-1.3,6.8c-0.4,2.3-0.8,4.4-1,6.3c-0.3,2-0.5,3.7-0.7,5.2
				s-0.2,2.6-0.2,3.3c0,3.1,0.2,5.4,0.7,6.7c0.4,1.4,1,2.1,1.7,2.1c0.6,0,1.3-0.1,2.1-0.3s1.8-0.5,3.1-1L196.8,481.1z M181.4,465.6
				c0.2-1.3,0.4-2.8,0.7-4.2c0.2-1.5,0.5-2.9,0.7-4.4c0.2-1.4,0.5-2.7,0.7-3.9c0.2-1.2,0.4-2.2,0.6-3c-0.5-0.4-1-0.8-1.5-1.2
				s-1.1-0.7-1.7-1.1c-0.6-0.3-1.2-0.6-1.8-0.8c-0.6-0.2-1.3-0.3-1.9-0.3c-1.4,0-2.7,0.3-3.9,1s-2.3,1.6-3.3,2.7
				c-1,1.1-1.9,2.4-2.7,3.8c-0.8,1.4-1.4,2.9-2,4.4c-0.5,1.5-1,3-1.2,4.5c-0.3,1.5-0.4,2.8-0.4,4.1c0,1.9,0.2,3.6,0.5,5.2
				c0.3,1.5,0.7,2.8,1.3,3.8c0.5,1.1,1.2,1.9,1.9,2.4c0.7,0.6,1.5,0.8,2.3,0.8c0.7,0,1.5-0.4,2.4-1.2c1-0.8,2-1.8,3.1-3.1
				s2.2-2.8,3.3-4.5C179.4,469,180.4,467.3,181.4,465.6z"/>
			<path class="st0" d="M244.3,480.9c-1.4,0.8-2.8,1.6-4.1,2.3c-1.3,0.7-2.6,1.3-3.7,1.9c-1.2,0.5-2.2,0.9-3.1,1.2
				c-0.9,0.3-1.7,0.4-2.4,0.4c-1.1,0-2-0.5-2.6-1.5s-1-2.3-1-4c0-0.6,0.1-1.5,0.3-3c0.2-1.4,0.5-3,0.7-4.9c0.3-1.9,0.6-3.8,1-5.9
				s0.7-4.1,1-6s0.5-3.6,0.7-5.1s0.3-2.6,0.3-3.3c0-2.2-0.2-3.7-0.7-4.6c-0.4-0.9-1.3-1.3-2.5-1.3c-0.4,0-1.1,0.2-2,0.6
				s-2,1.1-3.1,1.9c-1.2,0.9-2.4,2-3.6,3.3c-1.3,1.3-2.4,2.9-3.5,4.7c-0.9,1.5-1.6,3.3-2.1,5.4s-1.1,4.6-1.6,7.7
				c-0.2,1.4-0.5,2.7-0.6,3.8c-0.2,1.1-0.3,2.2-0.4,3.1c-0.1,1-0.1,1.9-0.1,2.8c0,0.9,0,1.7,0,2.6c-0.4,0.2-1,0.5-1.7,0.8
				s-1.5,0.7-2.3,1s-1.6,0.7-2.3,1s-1.3,0.6-1.7,0.8l-1.6-1.5c0.4-2.1,0.9-4.3,1.3-6.6c0.4-2.3,0.8-4.7,1.2-7c0.4-2.3,0.7-4.6,1-6.9
				c0.3-2.2,0.6-4.3,0.8-6.2s0.4-3.6,0.6-5c0.1-1.4,0.2-2.5,0.2-3.2c0-0.7,0-1.3-0.1-1.7s-0.2-0.7-0.3-0.9s-0.3-0.3-0.5-0.4
				c-0.2-0.1-0.5-0.1-0.7-0.1c-0.3,0-0.7,0.1-1.2,0.2c-0.5,0.1-1.1,0.3-1.6,0.4c-0.6,0.2-1.3,0.4-2,0.6l-0.7-2.3
				c1.3-0.6,2.7-1.1,4.2-1.7c1.5-0.6,2.8-1.1,4.2-1.6c1.3-0.5,2.5-0.8,3.5-1.1c1-0.3,1.7-0.4,2.1-0.4c0.4,0,0.8,0.1,1,0.2
				s0.4,0.4,0.6,0.8c0.1,0.4,0.2,0.9,0.3,1.6c0,0.7,0.1,1.6,0.1,2.7c0,0.3,0,0.8,0,1.3s-0.1,1.1-0.1,1.7c0,0.6-0.1,1.2-0.1,1.7
				c-0.1,0.6-0.1,1-0.1,1.4c1.7-2,3.4-3.7,5.1-5.1c1.7-1.4,3.4-2.6,5-3.5c1.6-0.9,3.2-1.6,4.8-2c1.5-0.4,3-0.7,4.4-0.7
				c1,0,1.8,0.1,2.6,0.4c0.8,0.3,1.4,0.7,1.9,1.3c0.5,0.6,0.9,1.4,1.2,2.4s0.4,2.3,0.4,3.8c0,1.1-0.1,2.4-0.3,4s-0.5,3.3-0.8,5.1
				s-0.6,3.7-1,5.6s-0.7,3.8-1,5.5s-0.6,3.3-0.8,4.8c-0.2,1.4-0.3,2.6-0.3,3.5c0,1.1,0.1,1.8,0.4,2.2c0.3,0.4,0.7,0.6,1.3,0.6
				c0.7,0,1.5-0.1,2.4-0.4c0.9-0.2,1.9-0.6,3.2-1.2L244.3,480.9z"/>
			<path class="st0" d="M289.9,481.1c-2.6,1.8-4.9,3.2-6.8,4.2s-3.4,1.5-4.5,1.5c-0.6,0-1.1-0.2-1.7-0.7s-1.1-1.2-1.5-2.3
				c-0.4-1.1-0.8-2.5-1.1-4.2c-0.3-1.7-0.5-3.9-0.5-6.5c-1.1,1.9-2.3,3.7-3.5,5.4s-2.5,3.1-3.8,4.3c-1.3,1.2-2.6,2.2-3.9,2.9
				c-1.3,0.7-2.6,1.1-3.8,1.1c-1.1,0-2.3-0.3-3.5-1c-1.2-0.6-2.4-1.6-3.4-3c-1-1.4-1.9-3.1-2.6-5.2c-0.7-2.1-1-4.6-1-7.5
				c0-2.5,0.3-4.8,0.8-7.2c0.6-2.3,1.4-4.5,2.5-6.6c1.1-2.1,2.5-4.1,4.1-5.9c1.6-1.8,3.6-3.5,5.8-4.9c0.9-0.6,1.8-1.1,2.8-1.6
				s2.1-1,3.2-1.4c1.1-0.4,2.2-0.8,3.3-1c1.1-0.2,2.2-0.4,3.2-0.4c0.6,0,1.3,0.2,2,0.6c0.7,0.4,1.4,0.8,2.1,1.4
				c0.3-2.1,0.7-4.2,1-6.2s0.6-3.9,0.8-5.7c0.2-1.8,0.4-3.3,0.6-4.8c0.1-1.4,0.2-2.6,0.2-3.5c0-0.7-0.1-1.3-0.2-1.7
				c-0.1-0.4-0.3-0.7-0.5-0.9c-0.2-0.2-0.4-0.3-0.7-0.4c-0.2-0.1-0.5-0.1-0.8-0.1s-0.7,0.1-1.2,0.2s-1.1,0.3-1.6,0.4
				c-0.6,0.2-1.3,0.4-2.1,0.6l-0.6-2.3c1.4-0.7,2.8-1.3,4.2-1.9c1.4-0.6,2.8-1.1,4-1.6c1.3-0.5,2.4-0.8,3.3-1.1
				c1-0.3,1.7-0.4,2.1-0.4c0.9,0,1.6,0.3,2.1,0.8c0.5,0.6,0.7,1.6,0.7,3c0,1.2-0.1,2.8-0.3,4.7c-0.2,1.9-0.5,4.1-0.9,6.5
				c-0.4,2.4-0.8,4.9-1.2,7.6c-0.5,2.7-0.9,5.4-1.4,8.1s-0.9,5.4-1.4,8.1c-0.5,2.7-0.9,5.1-1.2,7.4c-0.4,2.3-0.6,4.4-0.9,6.2
				c-0.2,1.8-0.3,3.2-0.3,4.3c0,3.3,0.2,5.7,0.6,7.2s0.9,2.3,1.7,2.3c0.8,0,1.6-0.1,2.4-0.3c0.8-0.2,1.8-0.5,2.8-1L289.9,481.1z
				 M274.3,465.7c0.2-1.9,0.6-4.1,1-6.6s0.8-5.1,1.3-7.8c-0.5-0.6-1.1-1.1-1.6-1.7c-0.6-0.5-1.2-1-1.8-1.5c-0.6-0.5-1.3-0.8-2-1.1
				c-0.7-0.3-1.4-0.4-2.2-0.4c-1.4,0-2.6,0.3-3.8,1c-1.2,0.7-2.3,1.6-3.2,2.7c-1,1.1-1.9,2.4-2.6,3.8c-0.8,1.4-1.4,2.9-1.9,4.4
				s-0.9,3-1.2,4.5c-0.3,1.5-0.4,2.8-0.4,4.1c0,1.9,0.2,3.6,0.5,5.2c0.4,1.5,0.8,2.8,1.4,3.8c0.6,1.1,1.3,1.9,2.1,2.4
				c0.8,0.6,1.6,0.8,2.4,0.8c0.7,0,1.5-0.3,2.4-1s1.9-1.6,2.9-2.8c1-1.2,2.1-2.6,3.2-4.3C272,469.7,273.2,467.8,274.3,465.7z"/>
			<path class="st0" d="M349.3,449.1v35.7h-26.5v-98.1H355c26.7,0,40,9.7,40,29c0,11.4-5.6,20.2-16.7,26.4l28.6,42.8h-30.1
				L356,449.1H349.3z M349.3,429.2h5c9.3,0,13.9-4.1,13.9-12.3c0-6.8-4.5-10.1-13.6-10.1h-5.2L349.3,429.2L349.3,429.2z"/>
			<path class="st0" d="M410.4,484.9v-98.2H437v98.2H410.4z"/>
			<path class="st0" d="M496.5,407c-6.3,0-11.2,2.6-14.8,7.8c-3.5,5.2-5.3,12.3-5.3,21.4c0,18.9,7.2,28.3,21.6,28.3
				c4.3,0,8.6-0.6,12.6-1.8c4.1-1.2,8.2-2.7,12.3-4.4v22.4c-8.2,3.6-17.5,5.4-27.8,5.4c-14.8,0-26.2-4.3-34.1-12.9
				c-7.9-8.6-11.9-21-11.9-37.3c0-10.2,1.9-19.1,5.7-26.8c3.8-7.7,9.3-13.6,16.5-17.8c7.2-4.1,15.6-6.2,25.4-6.2
				c10.6,0,20.8,2.3,30.4,6.9l-8.1,20.9c-3.6-1.7-7.3-3.1-10.9-4.3C504.5,407.6,500.6,407,496.5,407z"/>
			<path class="st0" d="M620.7,484.9H594v-40h-30.8v40h-26.7v-98.2h26.7v36.4H594v-36.4h26.7V484.9z"/>
		</g>
		<g>
			<path class="st0" d="M78.8,378c0,6.1-1.5,11.5-4.6,16.2c-3.1,4.7-7.5,8.4-13.4,11c-5.8,2.6-12.6,3.9-20.5,3.9
				c-6.5,0-12-0.5-16.5-1.4c-4.4-0.9-9-2.5-13.8-4.8v-23.5c5.1,2.6,10.3,4.6,15.8,6.1s10.5,2.2,15,2.2c3.9,0,6.8-0.7,8.7-2
				c1.8-1.4,2.8-3.1,2.8-5.3c0-1.3-0.4-2.5-1.1-3.5c-0.7-1-1.9-2-3.6-3.1c-1.6-1-6-3.1-13.1-6.3c-6.4-2.9-11.2-5.7-14.4-8.5
				c-3.2-2.7-5.6-5.9-7.1-9.4c-1.5-3.6-2.3-7.8-2.3-12.6c0-9,3.3-16.1,9.9-21.2c6.6-5.1,15.6-7.6,27.1-7.6c10.2,0,20.5,2.4,31.1,7.1
				l-8.1,20.5c-9.2-4.2-17.1-6.3-23.8-6.3c-3.4,0-6,0.6-7.5,1.8c-1.6,1.2-2.4,2.7-2.4,4.5c0,1.9,1,3.6,3,5.2c2,1.5,7.4,4.3,16.2,8.3
				c8.5,3.8,14.3,7.9,17.6,12.3C77.2,365.9,78.8,371.4,78.8,378z"/>
			<path class="st0" d="M172,309.7v59.1c0,12.9-3.6,22.8-10.9,29.9c-7.3,7.1-17.8,10.6-31.5,10.6c-13.4,0-23.7-3.4-30.9-10.3
				S88,382.2,88,369.4v-59.7h26.7v57.6c0,6.9,1.3,12,3.9,15.1s6.4,4.7,11.5,4.7c5.4,0,9.3-1.6,11.8-4.7c2.4-3.1,3.7-8.2,3.7-15.3
				v-57.4H172z"/>
			<path class="st0" d="M245.4,407.9h-58.3v-98.2h58.3V331h-31.8v15.4H243v21.3h-29.4v18.5h31.8L245.4,407.9L245.4,407.9z"/>
		</g>
	</g>
</g>
</svg>
